<?xml version="1.0" encoding="utf-8"?>
<!-- Generator: Adobe Illustrator 16.0.0, SVG Export Plug-In . SVG Version: 6.00 Build 0)  -->
<!DOCTYPE svg PUBLIC "-//W3C//DTD SVG 1.1//EN" "http://www.w3.org/Graphics/SVG/1.1/DTD/svg11.dtd">
<svg version="1.1" id="Calque_1" xmlns="http://www.w3.org/2000/svg" xmlns:xlink="http://www.w3.org/1999/xlink" x="0px" y="0px"
	 width="116.22px" height="116.22px" viewBox="0 0 116.22 116.22" enable-background="new 0 0 116.22 116.22" xml:space="preserve">
<g>
	<path fill="#FFFFFF" d="M113.684,58.111c0,30.692-24.882,55.573-55.574,55.573c-30.693,0-55.574-24.881-55.574-55.573
		c0-30.693,24.881-55.574,55.574-55.574C88.802,2.537,113.684,27.417,113.684,58.111"/>
	<circle fill="none" stroke="#49F09F" stroke-width="3" stroke-miterlimit="10" cx="58.11" cy="58.111" r="55.574"/>
	<path fill="#FFFFFF" d="M109.189,58.111c0,28.21-22.869,51.077-51.079,51.077S7.031,86.321,7.031,58.111S29.9,7.032,58.11,7.032
		S109.189,29.901,109.189,58.111"/>
	<circle fill="none" stroke="#81F5BD" stroke-width="2" stroke-miterlimit="10" cx="58.11" cy="58.111" r="51.079"/>
	<path fill="#FFFFFF" d="M105.365,58.111c0,26.099-21.157,47.255-47.255,47.255c-26.098,0-47.255-21.156-47.255-47.255
		c0-26.1,21.157-47.255,47.255-47.255C84.208,10.856,105.365,32.011,105.365,58.111"/>
	<circle fill="none" stroke="#CAFBE3" stroke-miterlimit="10" cx="58.11" cy="58.111" r="47.255"/>
	<path fill="#D4009D" d="M95.953,72.506L87.419,46.8c-0.717-2.097-1.915-5.605-5.903-5.605c-3.381,0-5.119,2.219-6.914,4.944
		l-3.566,5.741c-0.007,0.012-0.019,0.017-0.025,0.027c-0.1,0.169-0.186,0.309-0.277,0.46l-0.35,0.563
		c-0.003,0.006-0.003,0.012-0.006,0.016c-1.025,1.638-1.493,2.063-2.108,2.063c-0.352,0-0.79-0.227-1.609-3.089L65.167,46.8
		c-0.716-2.097-1.914-5.605-5.902-5.605c-3.38,0-5.12,2.219-6.916,4.944l-16.1,25.963C35.69,73,35.969,74.18,36.867,74.737
		c0.315,0.195,0.663,0.289,1.007,0.289c0.641,0,1.267-0.322,1.629-0.906l16.073-25.918c1.793-2.717,2.494-3.177,3.689-3.177
		c0.777,0,1.319,0.201,2.253,2.929l1.514,5.184c0.604,2.133,1.616,5.702,5.237,5.702c2.917,0,4.359-2.175,5.796-4.578l3.763-6.06
		c1.792-2.717,2.492-3.177,3.688-3.177c0.778,0,1.319,0.201,2.273,2.999l8.528,25.691c0.268,0.803,1.014,1.311,1.817,1.311
		c0.2,0,0.402-0.033,0.603-0.098C95.742,74.596,96.286,73.512,95.953,72.506"/>
	<path fill="#FF0071" d="M64.799,61.926l-3.75,6.039c-0.022,0.033-0.045,0.066-0.066,0.104l-0.584,0.945
		c-0.019,0.029-0.037,0.061-0.053,0.092c-1.198,1.861-1.735,2.092-2.478,2.092c-0.437,0-0.932,0-1.841-2.963l-2.791-8.996
		l-2.672,4.309l1.803,5.816c0.65,2.117,1.739,5.662,5.501,5.662c3.124,0,4.715-2.162,6.293-4.813l4.72-7.602
		c-0.208,0.014-0.396,0.057-0.612,0.057C66.917,62.668,65.777,62.381,64.799,61.926"/>
	<path fill="#FF0071" d="M43.474,41.196c-3.382,0-5.12,2.219-6.915,4.942L20.457,72.1c-0.558,0.9-0.281,2.08,0.619,2.637
		c0.897,0.557,2.078,0.279,2.635-0.615l16.074-25.919c1.792-2.718,2.492-3.178,3.689-3.178c0.777,0,1.318,0.2,2.262,2.961
		l0.321,1.035l2.572-4.147C47.792,43.053,46.375,41.196,43.474,41.196"/>
</g>
</svg>
