<?xml version="1.0" encoding="utf-8"?>
<!-- Generator: Adobe Illustrator 16.0.0, SVG Export Plug-In . SVG Version: 6.00 Build 0)  -->
<!DOCTYPE svg PUBLIC "-//W3C//DTD SVG 1.1//EN" "http://www.w3.org/Graphics/SVG/1.1/DTD/svg11.dtd">
<svg version="1.1" id="Calque_1" xmlns="http://www.w3.org/2000/svg" xmlns:xlink="http://www.w3.org/1999/xlink" x="0px" y="0px"
	 width="128px" height="128px" viewBox="0 0 128 128" enable-background="new 0 0 128 128" xml:space="preserve">
<g>
	<g>
		<path fill-rule="evenodd" clip-rule="evenodd" fill="#D4009D" d="M128,113.827c0,7.795-6.378,14.173-14.173,14.173H14.173
			C6.378,128,0,121.622,0,113.827V14.173C0,6.378,6.378,0,14.173,0h99.654C121.623,0,128,6.378,128,14.173V113.827z"/>
	</g>
	<g>
		<path fill-rule="evenodd" clip-rule="evenodd" fill="#FFFFFF" d="M36.069,29.612c2.8-0.166,4.957,0.623,6.469,1.885
			c1.478,1.232,2.596,3.034,2.813,5.54c0.234,2.71-0.867,4.777-2.193,6.104c-1.44,1.439-3.251,2.314-5.878,2.475
			c-2.683,0.163-4.885-0.598-6.441-1.856c-1.554-1.258-2.628-3.027-2.813-5.541c-0.205-2.785,0.858-4.824,2.166-6.132
			C31.612,30.667,33.368,29.771,36.069,29.612z"/>
		<path fill-rule="evenodd" clip-rule="evenodd" fill="#FFFFFF" d="M28.953,51.944c5.128,0,10.257,0,15.385,0
			c0,15.489,0,30.975,0,46.463c-5.147,0-10.294,0-15.441,0c0-15.459,0-30.92,0-46.379C28.896,51.98,28.918,51.956,28.953,51.944z"/>
		<path fill-rule="evenodd" clip-rule="evenodd" fill="#FFFFFF" d="M100,98.408c-5.148,0-10.295,0-15.441,0
			c0-7.199,0-14.486,0-21.74c0-1.895,0.052-3.695-0.113-5.344c-0.474-4.738-2.637-8.456-7.988-8.241
			c-3.396,0.135-5.504,1.858-6.834,4.049c-0.716,1.18-1.149,2.369-1.266,4.162c-0.105,1.621-0.027,3.496-0.027,5.4
			c0,7.223,0,14.533,0,21.713c-5.148,0-10.295,0-15.442,0c0.004-15.477,0.179-31.059,0-46.463c5.138,0,10.275,0,15.413,0
			c0.066,2.119,0.01,4.359,0.029,6.525c2.707-4.1,6.379-7.261,12.938-7.566c5.6-0.26,9.715,1.476,12.6,4.022
			c2.945,2.6,4.791,6.269,5.654,10.914c0.45,2.422,0.478,5.037,0.479,7.762C100,81.748,100,90.277,100,98.408z"/>
	</g>
</g>
</svg>
